<svg width="51" height="52" viewBox="0 0 51 52" fill="none" xmlns="http://www.w3.org/2000/svg">
<path d="M20.0373 1.00001C15.1153 1.00001 11.1157 5.00274 11.1157 9.92858V12.9048H5.16791C4.52126 12.9177 4.03858 13.4808 3.97836 13.9836L1.00448 49.6979C0.942509 50.3573 1.53223 51.0028 2.19403 51H37.8805C38.5423 51 39.132 50.3573 39.0701 49.6979L38.9771 48.619H36.5794H22.4164H3.4951L6.26452 15.2857H11.1157V17.8713C9.73569 18.3664 8.73655 19.6963 8.73655 21.2381C8.73655 23.1964 10.3484 24.8095 12.3052 24.8095C14.262 24.8095 15.8738 23.1964 15.8738 21.2381C15.8738 19.6963 14.8747 18.3664 13.4948 17.8713V15.2857H26.5798V17.6667H28.9589V15.2857H33.81L34.0145 17.6667H36.3936L36.0962 13.9836C36.041 13.3984 35.494 12.9022 34.9066 12.9048H28.9589V9.92858C28.9589 5.00274 24.9593 1.00001 20.0373 1.00001ZM20.0373 3.38096C23.6824 3.38096 26.5798 6.28061 26.5798 9.92858V12.9048H13.4948V9.92858C13.4948 6.28061 16.3921 3.38096 20.0373 3.38096ZM23.6059 19.936L21.2268 46.1265C21.1648 46.7859 21.7546 47.4314 22.4164 47.4286H48.5865C49.2483 47.4286 49.838 46.7859 49.776 46.1265L47.3969 19.936C47.3418 19.3508 46.7947 18.8546 46.2074 18.8571H24.7955C24.1758 18.8589 23.6661 19.4331 23.6059 19.936ZM12.3052 20.0476C12.9763 20.0476 13.4948 20.5665 13.4948 21.2381C13.4948 21.9096 12.9763 22.4286 12.3052 22.4286C11.6342 22.4286 11.1157 21.9096 11.1157 21.2381C11.1157 20.5665 11.6342 20.0476 12.3052 20.0476ZM25.8921 21.2381H45.1107L47.2854 45.0476H23.7174L25.8921 21.2381ZM29.5537 22.4286C28.8967 22.4286 28.3641 22.9615 28.3641 23.619V26C28.3641 29.9365 31.5679 33.1429 35.5014 33.1429C39.4349 33.1429 42.6387 29.9365 42.6387 26V23.619C42.6387 22.9615 42.1061 22.4286 41.4492 22.4286C40.7922 22.4286 40.2596 22.9615 40.2596 23.619V26C40.2596 28.6587 38.158 30.7619 35.5014 30.7619C32.8448 30.7619 30.7432 28.6587 30.7432 26V23.619C30.7432 22.9615 30.2107 22.4286 29.5537 22.4286Z" fill="#00CA9D" stroke="white" stroke-width="0.5"/>
</svg>
