<?xml version="1.0" standalone="no"?>
<!DOCTYPE svg PUBLIC "-//W3C//DTD SVG 20010904//EN"
 "http://www.w3.org/TR/2001/REC-SVG-20010904/DTD/svg10.dtd">
<svg version="1.0" xmlns="http://www.w3.org/2000/svg"
 width="323.000000pt" height="323.000000pt" viewBox="0 0 323.000000 323.000000"
 preserveAspectRatio="xMidYMid meet">
<metadata>
Created by potrace 1.11, written by Peter Selinger 2001-2013
</metadata>
<g transform="translate(0.000000,323.000000) scale(0.100000,-0.100000)"
fill="#000000" stroke="none">
<path d="M2697 3224 c-1 -1 -148 -5 -327 -9 -179 -4 -374 -9 -435 -10 -60 -2
-145 -3 -189 -4 l-78 -1 6 -342 c7 -386 14 -696 15 -716 1 -8 18 0 44 21 128
103 270 175 422 216 69 18 98 21 176 22 178 1 319 -122 323 -281 0 -33 4 -60
8 -60 12 0 110 123 163 205 144 220 209 442 222 747 6 148 -3 205 -31 210 -13
2 -317 4 -319 2z"/>
<path d="M1389 3195 c-2 -2 -21 -6 -42 -9 -100 -16 -283 -96 -436 -191 -286
-177 -521 -453 -638 -750 -68 -171 -105 -358 -107 -545 l-1 -75 230 3 c200 3
413 8 438 11 4 1 -18 23 -51 50 -77 64 -147 136 -184 189 -118 170 -108 352
25 451 74 55 127 70 238 66 213 -6 364 -65 571 -222 62 -47 65 -45 62 32 -1
28 -4 214 -8 415 -7 327 -12 534 -15 566 -1 10 -73 18 -82 9z"/>
<path d="M2298 2225 c-2 -2 -24 -5 -49 -8 -77 -9 -129 -26 -227 -74 -163 -80
-302 -238 -302 -345 0 -153 278 -155 515 -3 75 47 178 155 209 217 44 88 30
172 -32 196 -26 10 -108 22 -114 17z"/>
<path d="M755 2206 c-79 -35 -90 -107 -31 -199 72 -113 171 -201 286 -254 85
-39 142 -53 248 -58 70 -4 94 -1 121 13 66 33 95 109 68 174 -24 56 -105 146
-179 198 -147 103 -415 169 -513 126z"/>
<path d="M1962 1471 c2 -4 37 -39 78 -76 41 -37 98 -89 125 -114 28 -25 99
-91 160 -146 60 -55 115 -105 122 -112 7 -6 13 -16 13 -21 0 -12 -91 -122
-101 -122 -3 0 -22 15 -41 33 -146 135 -314 293 -372 347 -38 36 -77 72 -86
80 -9 8 -44 41 -77 73 -34 31 -65 57 -70 57 -5 0 -8 -54 -7 -122 1 -68 5 -267
8 -443 12 -665 18 -890 23 -895 6 -6 757 4 1103 15 93 2 140 28 171 94 19 38
21 54 16 145 -6 101 -8 113 -28 216 -34 172 -146 410 -251 536 -205 246 -403
375 -678 443 -91 23 -113 25 -108 12z"/>
<path d="M857 1464 c-1 -1 -154 -5 -340 -8 -186 -3 -342 -8 -347 -11 -20 -12
19 -220 66 -357 152 -438 474 -789 879 -960 139 -59 396 -135 415 -123 5 3 7
84 5 183 -3 97 -7 294 -10 437 -13 689 -17 830 -22 838 -3 5 -9 4 -13 -3 -4
-6 -52 -57 -106 -113 -54 -57 -153 -161 -219 -232 -66 -70 -151 -162 -190
-203 l-70 -74 -52 58 c-29 31 -53 60 -53 63 0 7 95 108 311 329 88 89 159 167
159 172 0 8 -405 11 -413 4z"/>
</g>
</svg>
