<svg xmlns="http://www.w3.org/2000/svg" viewBox="0 0 323 323"><title>Asset 7safari-pinned-tab</title><g id="8a8caeef-9a22-43fe-97fe-a2bfc467b52c" data-name="Layer 2"><g id="b911c594-269e-4b37-82af-60e02dbb2025" data-name="Layer 1"><rect width="323" height="323" rx="44" ry="44" style="fill:#0aac85"/><path d="M145.38,135c3.34,4.15,6.75,8.79,4,14.41-2.65,5.41-7.68,5.62-14,5.24-15.76-1.38-28.86-9.7-37.2-24-4.54-7.81-.51-13.64,7.82-13.67,5.76,0,11.71,1.45,17.26,3.2A45.55,45.55,0,0,1,145.38,135Z" style="fill:#fff"/><path d="M58.52,157.83a155.46,155.46,0,0,1,2.89-24.31c5.35-27.35,21.51-50,44.82-66.7a110.46,110.46,0,0,1,35.51-17A43.26,43.26,0,0,1,153.5,48.6s0,53.68,0,75.59c-1.73-1.4-3.09-2.47-4.45-3.56-12.1-10-25.82-16.34-41.66-16.54-18.92-.27-28.87,16.09-19.94,32.74,2.65,5,8.22,12.74,19.6,21C107.05,157.86,72.25,157.88,58.52,157.83Z" style="fill:#fff"/><path d="M153.5,170s-.05,104.43,0,104.43Q90,260.72,66,203.56A100.7,100.7,0,0,1,58.34,170h79.42c-2.37,2.51-35.62,35.34-35.62,35.34l7.67,9C124.88,199.93,138.47,184.45,153.5,170Z" style="fill:#fff"/><path d="M220.51,133.34c-6,11.92-24,22.71-39,22.93a27.41,27.41,0,0,1-3.37-.19c-8.48-1.13-11.64-6.74-7.58-14.27a36.12,36.12,0,0,1,8.11-10,52.38,52.38,0,0,1,32.55-13.17C221.82,118.16,224.93,124.53,220.51,133.34Z" style="fill:#fff"/><path d="M264.63,58.3c-.61,29.28-9.52,53.81-29.44,73.14A20.25,20.25,0,0,0,227,110.37c-6.23-4.6-13.46-5.28-20.94-4.26a71.8,71.8,0,0,0-33.25,13.82c-1.45,1.09-3.45,2.84-5.69,4.36V48.6s62.31-.11,88.05,0C264.23,48.57,264.83,49.12,264.63,58.3Z" style="fill:#fff"/><path d="M167.16,274.47h81.27S259,273.29,259,262.75c.06-29.88-11.33-54.73-33.72-74.15-11.35-9.84-26.69-16-41.46-18.59l36.77,35-8,9s-43.64-42.58-45.45-44.1Z" style="fill:#fff"/><path d="M167.07,221.18c0,13.35-.11,26.72,0,40.08q0-20,0-40.08Z" style="fill:#fff"/></g></g></svg>