<svg xmlns="http://www.w3.org/2000/svg" xmlns:xlink="http://www.w3.org/1999/xlink" width="45.312" height="57.25" viewBox="0 0 45.312 57.25">
  <defs>
    <style>
      .cls-1 {
        fill: #ffe5ca;
        stroke: #f2f2f2;
        stroke-miterlimit: 10;
        stroke-width: 0.5px;
      }

      .cls-2 {
        fill: #282828;
      }

      .cls-3 {
        fill: #15a580;
      }

      .cls-4 {
        fill: #fff;
      }

      .cls-13, .cls-5 {
        fill: #c8c8c8;
      }

      .cls-14, .cls-5, .cls-6, .cls-7, .cls-8 {
        opacity: 0.35;
      }

      .cls-10, .cls-6 {
        fill: #35343d;
      }

      .cls-11, .cls-7 {
        fill: #4b4a52;
      }

      .cls-12, .cls-8 {
        fill: #2cd0a9;
      }

      .cls-9 {
        font-size: 1px;
        font-family: WorkSans-Regular, Work Sans;
      }

      .cls-15 {
        filter: url(#Path_3124);
      }

      .cls-16 {
        filter: url(#Path_3118);
      }

      .cls-17 {
        filter: url(#Path_3112);
      }

      .cls-18 {
        filter: url(#Path_3105);
      }

      .cls-19 {
        filter: url(#Path_3099);
      }

      .cls-20 {
        filter: url(#Path_3093);
      }
    </style>
    <filter id="Path_3093" x="14.882" y="4.707" width="28.565" height="14.732" filterUnits="userSpaceOnUse">
      <feOffset dy="1.5" input="SourceAlpha"/>
      <feGaussianBlur stdDeviation="1.5" result="blur"/>
      <feFlood flood-opacity="0.129"/>
      <feComposite operator="in" in2="blur"/>
      <feComposite in="SourceGraphic"/>
    </filter>
    <filter id="Path_3099" x="12.453" y="11.211" width="28.487" height="15.069" filterUnits="userSpaceOnUse">
      <feOffset dy="1.5" input="SourceAlpha"/>
      <feGaussianBlur stdDeviation="1.5" result="blur-2"/>
      <feFlood flood-opacity="0.129"/>
      <feComposite operator="in" in2="blur-2"/>
      <feComposite in="SourceGraphic"/>
    </filter>
    <filter id="Path_3105" x="11.53" y="18.358" width="24.599" height="18.172" filterUnits="userSpaceOnUse">
      <feOffset dx="1" dy="9" input="SourceAlpha"/>
      <feGaussianBlur stdDeviation="0.5" result="blur-3"/>
      <feFlood flood-opacity="0.188"/>
      <feComposite operator="in" in2="blur-3"/>
      <feComposite in="SourceGraphic"/>
    </filter>
    <filter id="Path_3112" x="7.438" y="23.403" width="28.305" height="17.073" filterUnits="userSpaceOnUse">
      <feOffset dy="1.5" input="SourceAlpha"/>
      <feGaussianBlur stdDeviation="1.5" result="blur-4"/>
      <feFlood flood-opacity="0.129"/>
      <feComposite operator="in" in2="blur-4"/>
      <feComposite in="SourceGraphic"/>
    </filter>
    <filter id="Path_3118" x="4.847" y="29.678" width="28.2" height="18.146" filterUnits="userSpaceOnUse">
      <feOffset dy="1.5" input="SourceAlpha"/>
      <feGaussianBlur stdDeviation="1.5" result="blur-5"/>
      <feFlood flood-opacity="0.129"/>
      <feComposite operator="in" in2="blur-5"/>
      <feComposite in="SourceGraphic"/>
    </filter>
    <filter id="Path_3124" x="2.199" y="36.074" width="28.085" height="19.269" filterUnits="userSpaceOnUse">
      <feOffset dy="1.5" input="SourceAlpha"/>
      <feGaussianBlur stdDeviation="1.5" result="blur-6"/>
      <feFlood flood-opacity="0.129"/>
      <feComposite operator="in" in2="blur-6"/>
      <feComposite in="SourceGraphic"/>
    </filter>
  </defs>
  <g id="Group_1954" data-name="Group 1954" transform="translate(-444.477 -215.976)">
    <ellipse id="Ellipse_155" data-name="Ellipse 155" class="cls-1" cx="21.192" cy="21.625" rx="21.192" ry="21.625" transform="translate(444.727 224.938)"/>
    <g id="Group_1932" data-name="Group 1932" transform="translate(447.456 215.976)">
      <path id="Path_3090" data-name="Path 3090" class="cls-2" d="M495.758,216.1c-.434-.081-1.763-.126-1.763-.126s-12.488,33.328-18.578,49.449c.054-.494.078-.8.078-.8l-18.363-5.23-1.163,4.337a5.843,5.843,0,0,0,1.231,3.308c.951,1.19,11.284,4.731,15.3,5.84.159.044,5.778,2.182,8.324-4.743,4.907-11.758,16.6-44.213,17.341-47.572S496.356,216.213,495.758,216.1Z" transform="translate(-455.969 -215.976)"/>
      <path id="Path_3091" data-name="Path 3091" class="cls-2" d="M476.914,216.634l17.2-.658s4.591-.056,3.159,5.246c-1.765,6.535-12.541,35.752-17.625,47.3-.879,2-2.851,5.486-7.651,4.134-.023-.006-10.795-3.193-13.865-5.008-3.288-1.943-1.5-6.6-1.5-6.6l15.6-40.82S473.252,216.506,476.914,216.634Z" transform="translate(-456.104 -215.976)"/>
      <path id="Path_3092" data-name="Path 3092" class="cls-3" d="M498.374,222.667l-2.891.111a2.209,2.209,0,0,0-1.093.809c-.322.35-.9.988-1.327,1.364a3.216,3.216,0,0,1-1.484.422s-3.487.048-4.989.059-1.671-.761-1.687-1.063a4.727,4.727,0,0,0-.228-1.178l-1.311.05c-2.533-.007-3.087.934-3.578,1.824C475.7,235.418,464.008,266.8,464.008,266.8s-1.289,3.254.919,4.139c2.9,1.16,8.271,3.911,13.2,4.622,4.641.944,4.852-.954,5.674-2.407.006-.01,16.21-41.629,17.661-47.234C502.322,222.6,498.374,222.667,498.374,222.667Z" transform="translate(-461.773 -221.042)"/>
    </g>
    <g id="Group_1952" data-name="Group 1952" transform="translate(451.176 223.683)">
      <g id="Group_1935" data-name="Group 1935" transform="translate(12.683)">
        <g class="cls-20" transform="matrix(1, 0, 0, 1, -19.38, -7.71)">
          <path id="Path_3093-2" data-name="Path 3093" class="cls-4" d="M544.3,253.453l-17-.061c-.192,0-.259-.231-.149-.512l1.586-4.044c.109-.277.355-.508.548-.515l17.088-.6c.248-.009.359.241.245.555l-1.662,4.6A.841.841,0,0,1,544.3,253.453Z" transform="translate(-507.72 -240.01)"/>
        </g>
        <g id="Group_1934" data-name="Group 1934" transform="translate(1.225 1.647)">
          <path id="Path_3094" data-name="Path 3094" class="cls-5" d="M587.146,263.9l-3.475.019c-.122,0-.174-.131-.114-.292h0a.434.434,0,0,1,.331-.3l3.477-.034c.129,0,.185.133.125.3h0A.442.442,0,0,1,587.146,263.9Z" transform="translate(-571.057 -261.162)"/>
          <g id="Group_1933" data-name="Group 1933">
            <path id="Path_3095" data-name="Path 3095" class="cls-6" d="M539.892,255.18l-4.306.092c-.125,0-.17-.142-.1-.322h0c.07-.179.23-.329.355-.332l4.31-.113c.134,0,.186.146.115.332h0A.512.512,0,0,1,539.892,255.18Z" transform="translate(-534.65 -254.505)"/>
            <path id="Path_3096" data-name="Path 3096" class="cls-7" d="M541.579,259.306l-7.644.1c-.125,0-.17-.144-.1-.325h0c.07-.18.23-.329.355-.332l7.65-.141c.141,0,.2.152.125.343h0A.519.519,0,0,1,541.579,259.306Z" transform="translate(-533.4 -257.615)"/>
            <path id="Path_3097" data-name="Path 3097" class="cls-8" d="M535.274,263.976l-3,.017c-.125,0-.169-.147-.1-.328h0c.071-.181.231-.33.356-.331l3-.032c.131,0,.18.149.109.335h0C535.571,263.822,535.405,263.975,535.274,263.976Z" transform="translate(-532.145 -261.166)"/>
          </g>
        </g>
        <path id="Path_3098" data-name="Path 3098" class="cls-6" d="M592.286,250.872l1.513-.046c.321-.01.463.319.314.73h0a1.121,1.121,0,0,1-.856.761l-1.512.031c-.313.006-.446-.32-.3-.724h0A1.114,1.114,0,0,1,592.286,250.872Z" transform="translate(-575.78 -250.072)"/>
      </g>
      <g id="Group_1938" data-name="Group 1938" transform="translate(10.254 6.504)">
        <g class="cls-19" transform="matrix(1, 0, 0, 1, -16.95, -14.21)">
          <path id="Path_3099-2" data-name="Path 3099" class="cls-4" d="M534.172,281.407l-16.878-.889c-.191-.01-.254-.253-.142-.54l1.62-4.13c.111-.283.358-.512.55-.51l16.977.2c.247,0,.354.268.238.59l-1.7,4.709A.806.806,0,0,1,534.172,281.407Z" transform="translate(-500.14 -261.13)"/>
        </g>
        <g id="Group_1937" data-name="Group 1937" transform="translate(1.228 1.217)">
          <path id="Path_3100" data-name="Path 3100" class="cls-5" d="M576.765,292.231l-3.455-.148c-.121-.005-.171-.145-.11-.31h0a.416.416,0,0,1,.332-.292l3.456.133c.128,0,.182.148.121.318h0A.424.424,0,0,1,576.765,292.231Z" transform="translate(-560.788 -288.779)"/>
          <g id="Group_1936" data-name="Group 1936">
            <path id="Path_3101" data-name="Path 3101" class="cls-6" d="M529.936,281.134l-4.273-.112c-.124,0-.167-.156-.1-.339h0c.072-.183.232-.331.356-.328l4.277.09c.133,0,.183.16.11.351h0C530.238,280.985,530.069,281.138,529.936,281.134Z" transform="translate(-524.712 -280.354)"/>
            <path id="Path_3102" data-name="Path 3102" class="cls-7" d="M531.563,285.6l-7.587-.262c-.124,0-.167-.159-.095-.343h0c.072-.184.232-.331.356-.328l7.594.222c.14,0,.194.168.12.363h0C531.877,285.45,531.7,285.606,531.563,285.6Z" transform="translate(-523.435 -283.621)"/>
            <path id="Path_3103" data-name="Path 3103" class="cls-8" d="M525.255,289.8l-2.973-.127c-.124-.005-.166-.161-.094-.345h0c.072-.185.232-.332.357-.327l2.975.112c.13,0,.177.164.1.353h0C525.552,289.654,525.385,289.8,525.255,289.8Z" transform="translate(-522.153 -286.9)"/>
          </g>
        </g>
        <path id="Path_3104" data-name="Path 3104" class="cls-6" d="M582.235,278.375l1.505.024c.32.005.457.353.3.774h0a1.076,1.076,0,0,1-.86.752l-1.5-.04c-.311-.008-.44-.354-.288-.768h0A1.07,1.07,0,0,1,582.235,278.375Z" transform="translate(-565.736 -277.638)"/>
      </g>
      <g id="Group_1941" data-name="Group 1941" transform="translate(5.331 10.651)">
        <g class="cls-18" transform="matrix(1, 0, 0, 1, -12.03, -18.36)">
          <path id="Path_3105-2" data-name="Path 3105" class="cls-4" d="M515.766,300.685l-18.756-1.767c-.186-.017-.248-.271-.136-.564l1.834-4.833c.109-.287.352-.516.54-.507l18.879.86c.249.011.36.293.244.626l-1.939,5.608C516.314,300.449,516.014,300.708,515.766,300.685Z" transform="translate(-484.79 -274.66)"/>
        </g>
        <text id="_-43_" data-name="-43%" class="cls-9" transform="translate(17.459 4.845) rotate(-0.704)"><tspan x="-2.56" y="0">-43%</tspan></text>
        <g id="Group_1940" data-name="Group 1940" transform="translate(0.616 2.072)">
          <g id="Group_1939" data-name="Group 1939">
            <path id="Path_3107" data-name="Path 3107" class="cls-10" d="M507.865,302.627l-4.636-.318c-.135-.009-.181-.188-.1-.4h0c.079-.209.254-.372.39-.364l4.641.289c.146.009.2.194.119.411h0C508.2,302.467,508.01,302.637,507.865,302.627Z" transform="translate(-502.182 -301.549)"/>
            <path id="Path_3108" data-name="Path 3108" class="cls-11" d="M509.622,307.872l-8.256-.647c-.135-.011-.18-.191-.1-.4h0c.079-.21.255-.373.39-.363l8.264.6c.154.011.213.2.132.428h0C509.969,307.71,509.776,307.884,509.622,307.872Z" transform="translate(-500.772 -305.269)"/>
            <path id="Path_3109" data-name="Path 3109" class="cls-12" d="M502.715,312.446l-3.219-.284c-.135-.012-.18-.194-.1-.4h0c.08-.21.255-.373.39-.362l3.222.264c.142.012.193.2.112.415h0C503.04,312.291,502.857,312.459,502.715,312.446Z" transform="translate(-499.356 -309.004)"/>
            <path id="Path_3110" data-name="Path 3110" class="cls-12" d="M562.926,317.486l-2.4-.212c-.169-.015-.239-.22-.155-.456h0c.083-.236.29-.418.459-.4l2.4.2c.175.014.251.223.167.464h0C563.314,317.317,563.1,317.5,562.926,317.486Z" transform="translate(-545.53 -312.804)"/>
            <path id="Path_3111" data-name="Path 3111" class="cls-13" d="M548.684,316.292l-2.284-.2c-.161-.014-.224-.214-.142-.444h0c.083-.23.282-.407.442-.394l2.286.187c.167.014.236.217.152.452h0C549.055,316.126,548.85,316.307,548.684,316.292Z" transform="translate(-534.844 -311.925)"/>
          </g>
        </g>
      </g>
      <g id="Group_1944" data-name="Group 1944" transform="translate(5.239 18.696)">
        <g class="cls-17" transform="matrix(1, 0, 0, 1, -11.94, -26.4)">
          <path id="Path_3112-2" data-name="Path 3112" class="cls-4" d="M513.236,335.326l-16.611-2.661c-.187-.03-.244-.3-.126-.6l1.691-4.311c.116-.295.364-.518.553-.5l16.727,1.9c.244.028.344.327.222.664l-1.788,4.944C513.779,335.115,513.478,335.365,513.236,335.326Z" transform="translate(-484.5 -300.85)"/>
        </g>
        <g id="Group_1943" data-name="Group 1943" transform="translate(1.233 1.34)">
          <path id="Path_3113" data-name="Path 3113" class="cls-5" d="M555.25,350.726l-3.408-.508c-.12-.018-.165-.174-.1-.347h0c.064-.173.214-.3.334-.283l3.411.492c.126.018.177.179.112.357h0C555.532,350.615,555.376,350.745,555.25,350.726Z" transform="translate(-539.525 -345.505)"/>
          <g id="Group_1942" data-name="Group 1942">
            <path id="Path_3114" data-name="Path 3114" class="cls-6" d="M509.367,334.022l-4.2-.548c-.122-.016-.16-.185-.086-.377h0c.075-.191.236-.335.358-.32l4.205.523c.131.016.176.192.1.391h0C509.668,333.89,509.5,334.039,509.367,334.022Z" transform="translate(-504.186 -332.776)"/>
            <path id="Path_3115" data-name="Path 3115" class="cls-7" d="M510.866,339.023l-7.461-1.042c-.122-.017-.16-.188-.085-.38h0c.075-.192.236-.336.358-.32l7.468,1c.138.018.187.2.11.406h0C511.179,338.89,511,339.042,510.866,339.023Z" transform="translate(-502.853 -336.186)"/>
            <path id="Path_3116" data-name="Path 3116" class="cls-8" d="M504.558,342.94l-2.92-.436c-.122-.018-.16-.191-.084-.384h0c.075-.193.236-.336.358-.319l2.923.418c.128.018.17.2.094.393h0C504.853,342.813,504.686,342.959,504.558,342.94Z" transform="translate(-501.515 -339.61)"/>
          </g>
        </g>
        <path id="Path_3117" data-name="Path 3117" class="cls-14" d="M561.568,337.2l1.491.178c.316.038.445.431.285.874h0c-.161.444-.552.773-.868.731l-1.489-.2c-.308-.041-.428-.43-.268-.865h0C560.878,337.486,561.26,337.161,561.568,337.2Z" transform="translate(-545.059 -334.783)"/>
      </g>
      <g id="Group_1947" data-name="Group 1947" transform="translate(2.648 24.971)">
        <g class="cls-16" transform="matrix(1, 0, 0, 1, -9.35, -32.68)">
          <path id="Path_3118-2" data-name="Path 3118" class="cls-4" d="M502.409,363.2l-16.461-3.61c-.185-.041-.238-.324-.118-.63l1.728-4.406c.118-.3.367-.522.554-.49l16.586,2.817c.242.041.338.358.213.7l-1.833,5.069C502.952,363.009,502.65,363.255,502.409,363.2Z" transform="translate(-476.42 -321.39)"/>
        </g>
        <g id="Group_1946" data-name="Group 1946" transform="translate(1.235 1.405)">
          <path id="Path_3119" data-name="Path 3119" class="cls-5" d="M544.1,381.046l-3.382-.7c-.119-.025-.162-.19-.1-.368h0c.066-.177.216-.3.335-.279l3.384.684c.125.025.174.2.108.378h0C544.38,380.943,544.222,381.072,544.1,381.046Z" transform="translate(-528.514 -374.877)"/>
          <g id="Group_1945" data-name="Group 1945">
            <path id="Path_3120" data-name="Path 3120" class="cls-6" d="M498.74,361.345l-4.16-.78c-.121-.023-.157-.2-.081-.4h0c.076-.2.238-.338.359-.316l4.165.755c.13.024.172.209.095.412h0C499.04,361.222,498.87,361.369,498.74,361.345Z" transform="translate(-493.583 -359.85)"/>
            <path id="Path_3121" data-name="Path 3121" class="cls-7" d="M500.17,366.63l-7.39-1.459c-.121-.024-.157-.2-.08-.4h0c.077-.2.238-.338.359-.315l7.4,1.413c.136.026.184.219.1.428h0C500.483,366.508,500.306,366.657,500.17,366.63Z" transform="translate(-492.221 -363.336)"/>
            <path id="Path_3122" data-name="Path 3122" class="cls-8" d="M493.864,370.395l-2.891-.6c-.121-.025-.156-.207-.079-.4h0c.077-.2.239-.338.359-.314l2.894.582c.127.025.167.212.089.415h0C494.158,370.276,493.99,370.421,493.864,370.395Z" transform="translate(-490.853 -366.835)"/>
          </g>
        </g>
        <path id="Path_3123" data-name="Path 3123" class="cls-6" d="M550.505,367.333l1.48.26c.314.055.438.472.273.926h0c-.165.455-.558.778-.872.719l-1.478-.279c-.306-.058-.42-.47-.257-.915h0C549.816,367.6,550.2,367.28,550.505,367.333Z" transform="translate(-534.086 -364.107)"/>
      </g>
      <g id="Group_1951" data-name="Group 1951" transform="translate(0 31.367)">
        <g id="Group_1950" data-name="Group 1950">
          <g class="cls-15" transform="matrix(1, 0, 0, 1, -6.7, -39.07)">
            <path id="Path_3124-2" data-name="Path 3124" class="cls-4" d="M491.334,391.717l-16.3-4.6c-.183-.052-.232-.35-.109-.663l1.766-4.5c.121-.308.37-.525.555-.483l16.434,3.773c.24.055.333.391.2.746l-1.88,5.2C491.875,391.543,491.572,391.784,491.334,391.717Z" transform="translate(-468.16 -342.38)"/>
          </g>
          <g id="Group_1949" data-name="Group 1949" transform="translate(1.237 1.472)">
            <path id="Path_3125" data-name="Path 3125" class="cls-5" d="M532.668,412.115l-3.353-.9c-.118-.032-.159-.207-.092-.388h0c.067-.182.218-.305.336-.274l3.356.886c.124.033.171.213.1.4h0C532.95,412.022,532.792,412.148,532.668,412.115Z" transform="translate(-517.237 -404.955)"/>
            <g id="Group_1948" data-name="Group 1948">
              <path id="Path_3126" data-name="Path 3126" class="cls-6" d="M487.875,389.28l-4.117-1.023c-.12-.03-.153-.218-.075-.418h0c.078-.2.24-.34.36-.311l4.122,1c.129.031.169.226.089.435h0C488.174,389.167,488,389.312,487.875,389.28Z" transform="translate(-482.745 -387.524)"/>
              <path id="Path_3127" data-name="Path 3127" class="cls-7" d="M489.232,394.861l-7.315-1.895c-.119-.031-.153-.221-.074-.421h0c.078-.2.24-.34.36-.31l7.323,1.847c.135.034.18.237.1.452h0C489.543,394.749,489.367,394.9,489.232,394.861Z" transform="translate(-481.352 -391.088)"/>
              <path id="Path_3128" data-name="Path 3128" class="cls-8" d="M482.93,398.466l-2.86-.772c-.119-.032-.152-.224-.073-.425h0c.079-.2.241-.341.36-.309l2.863.753c.125.033.163.229.083.437h0C483.223,398.357,483.055,398.5,482.93,398.466Z" transform="translate(-479.954 -394.666)"/>
            </g>
          </g>
          <path id="Path_3129" data-name="Path 3129" class="cls-6" d="M539.168,398.212l1.469.347c.312.074.43.514.261.98h0c-.169.466-.564.784-.875.706l-1.466-.366c-.3-.076-.412-.512-.245-.968h0C538.48,398.455,538.865,398.141,539.168,398.212Z" transform="translate(-522.848 -394.137)"/>
        </g>
      </g>
    </g>
  </g>
</svg>
