<svg xmlns="http://www.w3.org/2000/svg" width="44.092" height="57.237" viewBox="0 0 44.092 57.237">
  <defs>
    <style>
      .cls-1 {
        fill: #ffe5ca;
      }

      .cls-2 {
        fill: #282828;
      }

      .cls-3 {
        fill: #15a580;
      }

      .cls-4 {
        fill: #2cd0a9;
      }

      .cls-5 {
        fill: #fff;
      }

      .cls-6 {
        fill: #fafcfb;
      }

      .cls-7 {
        fill: #a3a3a3;
      }

      .cls-8 {
        fill: #f49a40;
      }

      .cls-10, .cls-9 {
        fill: none;
        stroke: #5f5d71;
        stroke-miterlimit: 10;
      }

      .cls-9 {
        stroke-width: 0.5px;
      }

      .cls-10 {
        stroke-linecap: round;
        stroke-width: 0.75px;
      }
    </style>
  </defs>
  <g id="Group_1982" data-name="Group 1982" transform="translate(-1036.599 -211.774)">
    <circle id="Ellipse_158" data-name="Ellipse 158" class="cls-1" cx="21.212" cy="21.212" r="21.212" transform="translate(1038.266 221.217)"/>
    <g id="Group_1981" data-name="Group 1981" transform="translate(1036.599 211.774)">
      <g id="Group_1974" data-name="Group 1974" transform="translate(0 0)">
        <path id="Path_3164" data-name="Path 3164" class="cls-2" d="M1039.145,211.9c.435-.081,1.765-.126,1.765-.126s12.5,33.32,18.6,49.438c-.054-.494-.078-.8-.078-.8l18.381-5.228,1.164,4.336a5.837,5.837,0,0,1-1.233,3.307c-.952,1.19-11.3,4.73-15.317,5.838-.159.044-5.783,2.181-8.332-4.742-4.912-11.755-16.615-44.2-17.359-47.562S1038.547,212.011,1039.145,211.9Z" transform="translate(-1036.599 -211.774)"/>
        <path id="Path_3165" data-name="Path 3165" class="cls-2" d="M1060.917,212.431l-17.226-.658s-4.6-.056-3.163,5.245c1.768,6.534,12.559,35.747,17.651,47.295.88,2,2.855,5.485,7.662,4.133.023-.007,10.811-3.193,13.886-5.007,3.293-1.942,1.5-6.6,1.5-6.6L1065.6,216.028S1064.584,212.3,1060.917,212.431Z" transform="translate(-1039.382 -211.774)"/>
        <path id="Path_3166" data-name="Path 3166" class="cls-3" d="M1050.2,218.465l2.9.11a2.218,2.218,0,0,1,1.1.81c.323.351.906.99,1.331,1.366a3.234,3.234,0,0,0,1.489.423s3.5.048,5.005.06,1.677-.762,1.693-1.064a4.731,4.731,0,0,1,.229-1.179l1.316.05c2.542-.007,3.1.935,3.59,1.826,4.1,10.367,15.831,41.785,15.831,41.785s1.293,3.258-.922,4.143c-2.905,1.161-8.3,3.916-13.244,4.628-4.656.944-4.868-.955-5.693-2.41-.006-.01-16.263-41.68-17.719-47.292C1046.243,218.393,1050.2,218.465,1050.2,218.465Z" transform="translate(-1044.51 -216.871)"/>
      </g>
      <g id="Group_1980" data-name="Group 1980" transform="translate(12.17 13.115)">
        <path id="Path_3167" data-name="Path 3167" class="cls-4" d="M1122.177,349.019c.132.336-.01.633-.318.664l2.275,5.709a.462.462,0,0,0,.449.294l7.023-.959a.251.251,0,0,0,.173-.364l-1.955-5.485a.775.775,0,0,1-.723-.534Z" transform="translate(-1113.725 -328.936)"/>
        <path id="Path_3168" data-name="Path 3168" class="cls-5" d="M1087.741,267.278l7.608,19.09a.87.87,0,0,1,.806.56v0l6.924-.675h0c-.117-.326.02-.613.305-.639l-6.5-18.227a.621.621,0,0,0-.494-.421l-8.445-.12C1087.739,266.843,1087.646,267.037,1087.741,267.278Z" transform="translate(-1087.704 -266.846)"/>
        <g id="Group_1975" data-name="Group 1975" transform="translate(11.714 21.238)">
          <path id="Path_3169" data-name="Path 3169" class="cls-6" d="M1144.689,364.614a1.318,1.318,0,0,1,.241.045,1.64,1.64,0,0,1,.572.29,2.158,2.158,0,0,1,.528.571,2.079,2.079,0,0,1,.208.435c.038.112,0,.194-.107.2l-1.018.11-.094.01c-.015,0-.019,0-.026-.019l-.008-.021q-.136-.377-.273-.756-.144-.4-.288-.805c0-.01-.007-.02-.01-.031s0-.008.007-.005a.184.184,0,0,1,.024.015l.334.234.492.345c.042.03.037.032.055-.009l.046-.111a.131.131,0,0,0-.038-.031l-.62-.429-.039-.028C1144.669,364.61,1144.679,364.612,1144.689,364.614Z" transform="translate(-1142.623 -362.568)"/>
          <path id="Path_3170" data-name="Path 3170" class="cls-6" d="M1138.757,365.583c.018-.035.036-.066.051-.1.071-.147.141-.294.212-.44.033-.068.068-.135.1-.2l.008-.013s.012,0,.014.005l.013.035.557,1.546c.02.056.02.051-.03.044a2.343,2.343,0,0,1-.483-.117,2.459,2.459,0,0,1-.989-.677,2.642,2.642,0,0,1-.318-.419,2.2,2.2,0,0,1-.131-.252l-.009-.022c-.005-.015,0-.019.008-.021l.032,0,1.063-.1c.013,0,.026-.011.043,0a.065.065,0,0,1-.013.035c-.09.176-.181.352-.271.528-.026.05-.029.036.025.081Z" transform="translate(-1137.548 -362.732)"/>
          <path id="Path_3171" data-name="Path 3171" class="cls-6" d="M1142.931,357.375l-.005-.019a.455.455,0,0,0-.193-.272.421.421,0,0,0-.271-.08.593.593,0,0,0-.19.048.723.723,0,0,0-.32.254l-.036.047s-.012,0-.014-.006l-.012-.031-.4-1.126-.008-.022c-.007-.022-.006-.025.015-.028l.02,0,1.224-.106a.437.437,0,0,1,.089,0c.046.005.061.017.084.063a.5.5,0,0,1,.029.075c.03.1.059.192.08.288a1.365,1.365,0,0,1-.061.877A.093.093,0,0,1,1142.931,357.375Z" transform="translate(-1140.384 -356.027)"/>
          <path id="Path_3172" data-name="Path 3172" class="cls-6" d="M1137.727,358.406a.029.029,0,0,1-.024.009l-.642.062c-.039,0-.037,0-.051-.039-.026-.083-.048-.166-.066-.248a1.892,1.892,0,0,1-.049-.347,1.333,1.333,0,0,1,.1-.57,1.219,1.219,0,0,1,.453-.562.879.879,0,0,1,.193-.1.415.415,0,0,1,.124-.024c.013,0,.018,0,.024.018l.013.036.4,1.114.012.035c0,.006,0,.011-.009.008l-.054-.031a1.962,1.962,0,0,0-.248-.131,1.078,1.078,0,0,0-.357-.09.536.536,0,0,0-.2.015.22.22,0,0,0-.154.143.287.287,0,0,0,0,.181.56.56,0,0,0,.1.182,1.2,1.2,0,0,0,.205.194,1.665,1.665,0,0,0,.17.113Z" transform="translate(-1136.893 -356.454)"/>
          <path id="Path_3173" data-name="Path 3173" class="cls-5" d="M1139.7,362.039a.884.884,0,0,1-.66-.269c-.023-.021-.045-.044-.067-.067a.282.282,0,0,1-.05-.073.1.1,0,0,1,.015-.126.153.153,0,0,1,.1-.029,1.037,1.037,0,0,1,.436.092,1.013,1.013,0,0,1,.282.195.593.593,0,0,1,.04.044c.069.081.069.206-.035.228A.536.536,0,0,1,1139.7,362.039Z" transform="translate(-1138.428 -360.178)"/>
          <path id="Path_3174" data-name="Path 3174" class="cls-5" d="M1144.156,361.63a.248.248,0,0,1-.128-.013.17.17,0,0,1-.11-.132.24.24,0,0,1,0-.072.413.413,0,0,1,.037-.127.546.546,0,0,1,.15-.185.558.558,0,0,1,.276-.113.215.215,0,0,1,.095.007.158.158,0,0,1,.1.1.235.235,0,0,1,.013.074.324.324,0,0,1-.028.148.523.523,0,0,1-.335.3.329.329,0,0,1-.037.01Z" transform="translate(-1142.242 -359.804)"/>
        </g>
        <g id="Group_1978" data-name="Group 1978" transform="translate(3.888 1.691)">
          <g id="Group_1976" data-name="Group 1976" transform="translate(1.421)">
            <path id="Path_3175" data-name="Path 3175" class="cls-4" d="M1114.547,284.784l3.524,9.421c.062.165-.006.307-.151.317h0a.425.425,0,0,1-.377-.283l-3.56-9.448c-.068-.181,0-.331.159-.332h0A.494.494,0,0,1,1114.547,284.784Z" transform="translate(-1113.015 -281.955)"/>
            <path id="Path_3176" data-name="Path 3176" class="cls-4" d="M1110.6,274.284l.472,1.261c.068.183,0,.332-.159.333h0a.5.5,0,0,1-.41-.331l-.477-1.265c-.07-.186,0-.337.161-.336h0A.513.513,0,0,1,1110.6,274.284Z" transform="translate(-1109.999 -273.946)"/>
          </g>
          <g id="Group_1977" data-name="Group 1977" transform="translate(0 0.017)">
            <path id="Path_3177" data-name="Path 3177" class="cls-4" d="M1104.641,274.358l3.663,9.622c.065.17,0,.315-.154.323h0a.45.45,0,0,1-.391-.3l-3.7-9.651c-.072-.187,0-.34.162-.339h0A.523.523,0,0,1,1104.641,274.358Z" transform="translate(-1104.031 -274.017)"/>
            <path id="Path_3178" data-name="Path 3178" class="cls-7" d="M1122.336,319.958l.436,1.146c.063.166-.006.309-.152.319h0a.433.433,0,0,1-.384-.285l-.44-1.149c-.065-.169,0-.313.154-.322h0A.441.441,0,0,1,1122.336,319.958Z" transform="translate(-1117.547 -308.795)"/>
          </g>
          <path id="Path_3179" data-name="Path 3179" class="cls-8" d="M1122.453,290.418l2.944,8.009c.06.164-.007.305-.15.314h0a.418.418,0,0,1-.37-.281l-2.974-8.032c-.066-.178,0-.325.157-.328h0A.475.475,0,0,1,1122.453,290.418Z" transform="translate(-1117.628 -286.253)"/>
        </g>
        <g id="Group_1979" data-name="Group 1979" transform="translate(9.264 15.549)">
          <path id="Path_3180" data-name="Path 3180" class="cls-9" d="M1130.354,339.391a.811.811,0,0,1-.765-.522c-.136-.327-.012-.622.276-.658a.813.813,0,0,1,.763.526C1130.762,339.061,1130.639,339.353,1130.354,339.391Z" transform="translate(-1128.836 -336.763)"/>
          <path id="Path_3181" data-name="Path 3181" class="cls-9" d="M1136.306,333.262a.762.762,0,0,1-.712-.5c-.126-.31-.009-.588.26-.619a.764.764,0,0,1,.711.5C1136.689,332.954,1136.573,333.229,1136.306,333.262Z" transform="translate(-1133.415 -332.141)"/>
          <line id="Line_16" data-name="Line 16" class="cls-10" x2="3.788" y2="1.937" transform="translate(0 0.317)"/>
        </g>
      </g>
    </g>
  </g>
</svg>
