<svg xmlns="http://www.w3.org/2000/svg" width="44.554" height="57.25" viewBox="0 0 44.554 57.25">
  <defs>
    <style>
      .cls-1, .cls-4 {
        fill: #ffe5ca;
      }

      .cls-1 {
        stroke: #f2f2f2;
        stroke-miterlimit: 10;
        stroke-width: 0.5px;
      }

      .cls-2 {
        fill: #282828;
      }

      .cls-3 {
        fill: #f7fcfb;
      }

      .cls-5 {
        fill: #15a580;
      }

      .cls-6 {
        fill: #4b4a52;
      }

      .cls-7 {
        fill: #f49a40;
      }
    </style>
  </defs>
  <g id="Group_1973" data-name="Group 1973" transform="translate(-977.991 -625.397)">
    <ellipse id="Ellipse_157" data-name="Ellipse 157" class="cls-1" cx="21.209" cy="21.404" rx="21.209" ry="21.404" transform="translate(979.877 634.222)"/>
    <g id="Group_1965" data-name="Group 1965" transform="translate(977.991 625.397)">
      <path id="Path_3147" data-name="Path 3147" class="cls-2" d="M980.537,625.523c.435-.081,1.764-.126,1.764-.126s12.5,33.328,18.593,49.449c-.054-.494-.078-.8-.078-.8l18.378-5.229,1.164,4.337a5.841,5.841,0,0,1-1.232,3.308c-.952,1.19-11.294,4.731-15.314,5.839-.159.044-5.782,2.182-8.331-4.743-4.912-11.758-16.612-44.213-17.356-47.573S979.939,625.634,980.537,625.523Z" transform="translate(-977.991 -625.397)"/>
      <path id="Path_3148" data-name="Path 3148" class="cls-2" d="M1002.3,626.055l-17.219-.658s-4.6-.056-3.162,5.246c1.767,6.535,12.554,35.754,17.644,47.3.88,2,2.854,5.486,7.659,4.134.023-.007,10.807-3.194,13.881-5.008,3.292-1.943,1.5-6.6,1.5-6.6l-15.62-40.822S1005.967,625.927,1002.3,626.055Z" transform="translate(-980.766 -625.397)"/>
      <path id="Path_3149" data-name="Path 3149" class="cls-3" d="M991.593,632.088l2.9.111a2.215,2.215,0,0,1,1.1.809c.323.351.9.99,1.329,1.365a3.225,3.225,0,0,0,1.487.422s3.494.048,5,.06,1.675-.761,1.69-1.064a4.737,4.737,0,0,1,.229-1.179l1.314.05c2.538-.007,3.094.935,3.586,1.825,4.093,10.362,15.812,41.766,15.812,41.766s1.292,3.256-.921,4.142c-2.9,1.161-8.288,3.914-13.228,4.626-4.651.944-4.862-.955-5.686-2.409-.006-.01-16.244-41.662-17.7-47.271C987.637,632.016,991.593,632.088,991.593,632.088Z" transform="translate(-985.881 -630.48)"/>
    </g>
    <g id="Group_1966" data-name="Group 1966" transform="translate(991.437 635.39)">
      <path id="Path_3150" data-name="Path 3150" class="cls-4" d="M1034.97,672.758c-1.085-2.627.157-5.039,2.756-5.31a6.425,6.425,0,0,1,6.25,4.194c.89,2.477-.3,4.706-2.687,5.047A6.382,6.382,0,0,1,1034.97,672.758Z" transform="translate(-1034.577 -667.423)"/>
      <path id="Path_3151" data-name="Path 3151" class="cls-5" d="M1039.888,673.055a5.623,5.623,0,0,1,4.208,1.362,4.3,4.3,0,0,0-.12-2.776,6.425,6.425,0,0,0-6.25-4.194c-2.6.271-3.841,2.683-2.756,5.31a6.541,6.541,0,0,0,2.024,2.62A3.324,3.324,0,0,1,1039.888,673.055Zm-1.326-3.438a1.791,1.791,0,0,1,1.741,1.149.976.976,0,0,1-.749,1.424,1.788,1.788,0,0,1-1.746-1.128A.978.978,0,0,1,1038.562,669.616Z" transform="translate(-1034.577 -667.423)"/>
    </g>
    <g id="Group_1972" data-name="Group 1972" transform="translate(990.086 647.336)">
      <path id="Path_3152" data-name="Path 3152" class="cls-6" d="M1047.8,719.966l-17.254,2.788a1.153,1.153,0,0,1-1.108-.854h0c-.186-.538.011-1.031.436-1.1l17.327-2.6c.345-.052.761.3.925.784h0C1048.293,719.471,1048.146,719.911,1047.8,719.966Z" transform="translate(-1029.371 -718.199)"/>
      <g id="Group_1967" data-name="Group 1967" transform="translate(1.095 2.859)">
        <path id="Path_3153" data-name="Path 3153" class="cls-6" d="M1040.786,740.054l-5.687,1.025a1.125,1.125,0,0,1-1.1-.839h0c-.185-.537.01-1.035.431-1.107l5.711-.964a1.083,1.083,0,0,1,1.036.818h0C1041.352,739.5,1041.178,739.984,1040.786,740.054Z" transform="translate(-1033.927 -736.224)"/>
        <path id="Path_3154" data-name="Path 3154" class="cls-6" d="M1076.046,731.861l-9.684,1.746c-.385.069-.846-.294-1.023-.809h0c-.176-.515,0-.99.384-1.055l9.725-1.641c.343-.058.756.289.92.772h0C1076.532,731.355,1076.387,731.8,1076.046,731.861Z" transform="translate(-1057.738 -730.096)"/>
      </g>
      <g id="Group_1968" data-name="Group 1968" transform="translate(2.188 5.712)">
        <path id="Path_3155" data-name="Path 3155" class="cls-7" d="M1090.425,744.715l4.912-.978c.339-.068.482-.516.319-1h0c-.163-.481-.575-.823-.915-.759l-4.933.925c-.363.068-.522.533-.352,1.033h0C1089.626,744.437,1090.063,744.787,1090.425,744.715Z" transform="translate(-1077.154 -741.972)"/>
        <path id="Path_3156" data-name="Path 3156" class="cls-6" d="M1039.642,751.033l10.449-2.082c.368-.073.527-.542.356-1.043h0c-.171-.5-.612-.854-.981-.785l-10.494,1.968c-.419.079-.612.582-.426,1.118h0A1.1,1.1,0,0,0,1039.642,751.033Z" transform="translate(-1038.476 -745.879)"/>
      </g>
      <g id="Group_1969" data-name="Group 1969" transform="translate(3.279 8.561)">
        <path id="Path_3157" data-name="Path 3157" class="cls-6" d="M1088.682,756.965l6.29-1.374c.337-.074.478-.526.315-1.007h0c-.163-.48-.572-.817-.911-.747l-6.317,1.3c-.367.076-.528.55-.356,1.053h0C1087.875,756.7,1088.316,757.045,1088.682,756.965Z" transform="translate(-1076.913 -753.829)"/>
        <path id="Path_3158" data-name="Path 3158" class="cls-6" d="M1044.177,764.685l8.65-1.888c.373-.082.535-.561.362-1.066h0c-.173-.505-.619-.855-.993-.778l-8.688,1.794c-.416.086-.606.595-.422,1.13h0A1.072,1.072,0,0,0,1044.177,764.685Z" transform="translate(-1043.016 -759.232)"/>
      </g>
      <path id="Path_3159" data-name="Path 3159" class="cls-6" d="M1069.884,779.243l-16.663,4.285a1.022,1.022,0,0,1-1.078-.778h0c-.184-.533,0-1.052.412-1.153l16.736-4.1c.333-.082.739.243.9.723h0C1070.354,778.7,1070.216,779.158,1069.884,779.243Z" transform="translate(-1046.617 -763.237)"/>
      <g id="Group_1970" data-name="Group 1970" transform="translate(6.54 17.08)">
        <path id="Path_3160" data-name="Path 3160" class="cls-6" d="M1063.22,803.385l-5.49,1.52a1,1,0,0,1-1.072-.763h0c-.184-.532,0-1.057.408-1.164l5.514-1.459c.38-.1.833.236,1.008.748h0C1063.763,802.777,1063.6,803.28,1063.22,803.385Z" transform="translate(-1056.587 -798.564)"/>
        <path id="Path_3161" data-name="Path 3161" class="cls-6" d="M1097.265,791.039l-9.353,2.59c-.372.1-.821-.23-1-.74h0c-.175-.51-.011-1.009.363-1.109l9.394-2.486c.331-.088.734.232.9.71h0C1097.73,790.482,1097.594,790.948,1097.265,791.039Z" transform="translate(-1079.574 -789.28)"/>
      </g>
      <g id="Group_1971" data-name="Group 1971" transform="translate(7.623 19.91)">
        <path id="Path_3162" data-name="Path 3162" class="cls-6" d="M1111.258,804.224l4.744-1.408c.328-.1.462-.567.3-1.044h0c-.162-.477-.563-.792-.892-.7l-4.765,1.356c-.351.1-.5.587-.332,1.083h0C1110.483,804.008,1110.908,804.328,1111.258,804.224Z" transform="translate(-1098.434 -801.057)"/>
        <path id="Path_3163" data-name="Path 3163" class="cls-7" d="M1062.232,813.417l10.087-2.994c.355-.106.505-.6.336-1.094h0c-.17-.5-.6-.82-.955-.719l-10.131,2.883a.867.867,0,0,0-.4,1.176h0A.975.975,0,0,0,1062.232,813.417Z" transform="translate(-1061.094 -806.781)"/>
      </g>
    </g>
  </g>
</svg>
