<svg xmlns="http://www.w3.org/2000/svg" viewBox="0 0 68.58 58.69"><title>Asset 3</title><g id="74bf6636-bbc9-4f15-b524-e3da4716bbea" data-name="Layer 2"><g id="a1cb0152-51e2-4f24-b3a6-44ae5657a232" data-name="Layer 1"><path d="M33,31.8a20.12,20.12,0,0,1,3.9,1,20.83,20.83,0,0,1,8.27,5.29,23.91,23.91,0,0,1,5.92,9.78,25.09,25.09,0,0,1,1.11,7.25,3,3,0,0,1-3.08,3.14l-18.49.38-1.7,0c-.27,0-.32,0-.34-.33,0-.12,0-.24,0-.36-.09-4.13-.19-8.26-.27-12.39-.09-4.37-.16-8.74-.24-13.1,0-.17,0-.33,0-.5a.1.1,0,0,1,.15-.08,2.91,2.91,0,0,1,.33.26l4.41,4.1c2.18,2,4.34,4.07,6.52,6.09.56.52.45.56,1-.07s1-1.15,1.46-1.71a1.47,1.47,0,0,0-.49-.55l-8.26-7.56L32.66,32C32.64,31.7,32.81,31.75,33,31.8Z" style="fill:#18ad87"/><path d="M13.51,43.45c.52-.53,1-1,1.45-1.47l6.23-6.69c1-1,2-2,2.94-3.07a2,2,0,0,1,.21-.19.14.14,0,0,1,.2.1c0,.19,0,.38,0,.57l.51,25.22c0,.92.05.84-.78.66a35.28,35.28,0,0,1-7.64-2.52,28.5,28.5,0,0,1-12.93-12,28.25,28.25,0,0,1-2.91-7A25.92,25.92,0,0,1,.07,33c0-.12,0-.24,0-.36s.05-.3.27-.32H.88q9.36-.2,18.7-.37c.24,0,.51-.14.72.09-.07.24-.27.37-.43.54-2.58,2.66-5.17,5.32-7.74,8-.74.76-.72.54,0,1.3C12.54,42.38,13,42.88,13.51,43.45Z" style="fill:#18ad87"/><path d="M45.4,21.34c0-.14,0-.23,0-.32a5.05,5.05,0,0,0-1.76-4.49A6.17,6.17,0,0,0,39.44,15a13.47,13.47,0,0,0-3.56.54,18.66,18.66,0,0,0-7,3.63l-.9.7a.14.14,0,0,1-.2-.11c0-.17,0-.33,0-.5l-.36-18c0-.12,0-.24,0-.36,0-.35.05-.39.42-.41h.35L49.86,0a8.9,8.9,0,0,1,1.55,0c.77.13,1,.32,1.09,1.07a6,6,0,0,1,.09,1.2c-.05,1.53-.09,3.06-.29,4.59a24.5,24.5,0,0,1-6.15,13.73A2.39,2.39,0,0,1,45.4,21.34Z" style="fill:#18ad87"/><path d="M12.38,28.86a.71.71,0,0,1-.47.11L.64,29.19c-.67,0-.65,0-.63-.66a37.17,37.17,0,0,1,.34-3.94,28.26,28.26,0,0,1,1.22-5.45,26.14,26.14,0,0,1,5-8.74A30.8,30.8,0,0,1,17.5,2.16,21.13,21.13,0,0,1,21.37.81,8.85,8.85,0,0,1,23.61.56c.23,0,.29.07.31.3s0,.38,0,.57q.18,8.88.35,17.77c0,.19,0,.38,0,.57a.14.14,0,0,1-.2.12c-.25-.18-.5-.36-.74-.55A23.31,23.31,0,0,0,19.89,17a15.8,15.8,0,0,0-5.55-1.8,10.31,10.31,0,0,0-3.46,0,5.55,5.55,0,0,0-3.44,2.06,4.83,4.83,0,0,0-1,2.83,6.43,6.43,0,0,0,.63,2.95,12.84,12.84,0,0,0,2.35,3.26,18.85,18.85,0,0,0,2.23,2Z" style="fill:#18ad87"/><path d="M20.41,28a11.73,11.73,0,0,1-9.68-5c-.27-.36-.51-.74-.74-1.12a3.16,3.16,0,0,1-.43-1.19,1.78,1.78,0,0,1,1-1.94,3.47,3.47,0,0,1,1.79-.35,15.72,15.72,0,0,1,6.89,1.92,11.28,11.28,0,0,1,3.68,3.36,6.65,6.65,0,0,1,.43.73,2.42,2.42,0,0,1-1.93,3.53C21.08,28,20.74,27.94,20.41,28Z" style="fill:#18ad87"/><path d="M31.63,28.14a4.2,4.2,0,0,1-2.13-.36,1.92,1.92,0,0,1-1.12-2.21,3.81,3.81,0,0,1,.4-1.13,8.67,8.67,0,0,1,1.38-2,13.7,13.7,0,0,1,3.67-2.74,13.27,13.27,0,0,1,5.42-1.46,3.66,3.66,0,0,1,1.6.22,1.77,1.77,0,0,1,1.21,1.73,3.31,3.31,0,0,1-.2,1.17,6.38,6.38,0,0,1-1.36,2.3A13.27,13.27,0,0,1,33,28c-.23,0-.47.09-.7.11S31.85,28.13,31.63,28.14Z" style="fill:#18ad87"/><path d="M68.58,6.46A6.64,6.64,0,1,1,62,0,6.5,6.5,0,0,1,68.58,6.46ZM57,6.46a5,5,0,0,0,5,5.16A5,5,0,0,0,66.93,6.5a5,5,0,1,0-10,0Zm4,3.39h-1.5V3.39a12.89,12.89,0,0,1,2.48-.2,4.12,4.12,0,0,1,2.25.47,1.82,1.82,0,0,1,.63,1.42,1.66,1.66,0,0,1-1.34,1.5v.08a1.9,1.9,0,0,1,1.18,1.57,5,5,0,0,0,.47,1.62H63.5A5.54,5.54,0,0,1,63,8.27c-.11-.71-.51-1-1.33-1h-.71Zm0-3.67h.71c.82,0,1.49-.27,1.49-.94s-.43-1-1.38-1a3.43,3.43,0,0,0-.82.08Z" style="fill:#18ad87"/></g></g></svg>