<svg xmlns="http://www.w3.org/2000/svg" viewBox="0 0 69.08 58.69"><title>Asset 2promotion</title><g id="7c27cbeb-101e-4a81-9c50-b30cfb9c2121" data-name="Layer 2"><g id="ade44c2d-ba41-4aac-99f8-cefa5c4a949d" data-name="Layer 1"><path d="M33,31.79a21.67,21.67,0,0,1,3.9,1,20.83,20.83,0,0,1,8.27,5.29,24,24,0,0,1,5.92,9.78,25.09,25.09,0,0,1,1.11,7.25,3,3,0,0,1-3.08,3.15l-18.49.37c-.56,0-1.13,0-1.7,0-.27,0-.32-.06-.34-.34,0-.12,0-.23,0-.35-.09-4.13-.19-8.26-.27-12.4-.09-4.36-.16-8.73-.24-13.1,0-.16,0-.33,0-.49s.09-.13.15-.08a1.64,1.64,0,0,1,.33.26l4.41,4.1,6.52,6.09c.56.52.45.56,1-.08l1.46-1.71a1.44,1.44,0,0,0-.49-.54c-2.75-2.53-5.51-5-8.26-7.56L32.66,32C32.64,31.7,32.81,31.75,33,31.79Z" style="fill:#18ad87"/><path d="M13.51,43.45c.52-.53,1-1,1.45-1.48,2.08-2.22,4.15-4.46,6.23-6.68,1-1,2-2,2.94-3.07a1.29,1.29,0,0,1,.21-.19c.06-.06.2,0,.2.1s0,.38,0,.57l.51,25.21c0,.93.05.84-.78.67a34.77,34.77,0,0,1-7.64-2.53,28.39,28.39,0,0,1-12.93-12,28.34,28.34,0,0,1-2.91-7A26,26,0,0,1,.07,33c0-.12,0-.23,0-.35s.05-.31.27-.32l.56,0,18.7-.36c.24,0,.51-.15.72.09a1.49,1.49,0,0,1-.43.54c-2.58,2.66-5.17,5.32-7.74,8-.74.76-.72.54,0,1.31C12.54,42.37,13,42.88,13.51,43.45Z" style="fill:#18ad87"/><path d="M45.4,21.33c0-.13,0-.22,0-.31a5.07,5.07,0,0,0-1.76-4.5A6.16,6.16,0,0,0,39.44,15a13.47,13.47,0,0,0-3.56.54,18.52,18.52,0,0,0-7,3.63q-.45.36-.9.69c-.07.06-.2,0-.2-.11s0-.33,0-.49l-.36-18c0-.12,0-.23,0-.35,0-.35.05-.39.42-.41h.35L49.86,0a8,8,0,0,1,1.55,0c.77.12,1,.32,1.09,1.06a6.07,6.07,0,0,1,.09,1.2c-.05,1.54-.09,3.07-.29,4.59a24.53,24.53,0,0,1-6.15,13.74A2.25,2.25,0,0,1,45.4,21.33Z" style="fill:#18ad87"/><path d="M12.38,28.86a.64.64,0,0,1-.47.1L.64,29.19c-.67,0-.65,0-.63-.66a37.36,37.36,0,0,1,.34-4,28.43,28.43,0,0,1,1.22-5.45,26.2,26.2,0,0,1,5-8.73A30.68,30.68,0,0,1,17.5,2.16,21.93,21.93,0,0,1,21.37.8,8.84,8.84,0,0,1,23.61.56c.23,0,.29.07.31.3s0,.37,0,.56q.18,8.9.35,17.78c0,.19,0,.38,0,.57a.13.13,0,0,1-.2.11c-.25-.17-.5-.35-.74-.54A22.56,22.56,0,0,0,19.89,17a15.6,15.6,0,0,0-5.55-1.8,10.57,10.57,0,0,0-3.46,0,5.61,5.61,0,0,0-3.44,2.07,4.8,4.8,0,0,0-1,2.82,6.38,6.38,0,0,0,.63,2.95,12.84,12.84,0,0,0,2.35,3.26,18.93,18.93,0,0,0,2.23,2Z" style="fill:#18ad87"/><path d="M20.41,27.94a11.72,11.72,0,0,1-9.68-5c-.27-.36-.51-.74-.74-1.12a3.2,3.2,0,0,1-.43-1.2,1.78,1.78,0,0,1,1-1.93,3.28,3.28,0,0,1,1.79-.35,15.71,15.71,0,0,1,6.89,1.91,11.42,11.42,0,0,1,3.68,3.37,5.83,5.83,0,0,1,.43.73,2.43,2.43,0,0,1-1.93,3.53A8.14,8.14,0,0,1,20.41,27.94Z" style="fill:#18ad87"/><path d="M31.63,28.13a4.1,4.1,0,0,1-2.13-.36,1.92,1.92,0,0,1-1.12-2.21,3.66,3.66,0,0,1,.4-1.12,8.45,8.45,0,0,1,1.38-2,13.49,13.49,0,0,1,3.67-2.74,13.28,13.28,0,0,1,5.42-1.47,3.81,3.81,0,0,1,1.6.22,1.77,1.77,0,0,1,1.21,1.73,3.36,3.36,0,0,1-.2,1.18,6.38,6.38,0,0,1-1.36,2.3A13.32,13.32,0,0,1,33,28c-.23.05-.47.09-.7.12S31.85,28.13,31.63,28.13Z" style="fill:#18ad87"/><path d="M60.73.4V1.48H58.64V6.92H57.35V1.48H55.26V.4Zm7.06,6.52-.24-3.84c0-.5,0-1.12,0-1.82h-.07c-.17.58-.36,1.34-.56,1.94L65.7,6.83H64.35L63.18,3.11c-.12-.51-.31-1.27-.46-1.85h-.07c0,.6,0,1.22,0,1.82l-.24,3.84H61.11L61.59.4h1.95l1.13,3.19c.14.5.26,1,.43,1.65h0c.17-.6.31-1.15.46-1.63L66.71.4h1.87l.5,6.52Z" style="fill:#18ad87"/></g></g></svg>