<svg id="Layer_1" data-name="Layer 1" xmlns="http://www.w3.org/2000/svg" width="32" height="35.734" viewBox="0 0 32 35.734">
  <path id="Path_274" data-name="Path 274" d="M31.074,31.778a13.186,13.186,0,0,1,2.373.608,12.675,12.675,0,0,1,5.032,3.219,14.6,14.6,0,0,1,3.6,5.951,15.267,15.267,0,0,1,.675,4.411,1.825,1.825,0,0,1-1.874,1.917l-11.251.225H28.6c-.164,0-.195-.037-.207-.207V47.69c-.055-2.513-.116-5.026-.164-7.545-.055-2.653-.1-5.312-.146-7.971v-.3c0-.1.055-.079.091-.049a1,1,0,0,1,.2.158l2.683,2.495,3.967,3.706c.341.316.274.341.608-.049L36.52,37.1a.876.876,0,0,0-.3-.329c-1.673-1.539-3.353-3.042-5.026-4.6l-.329-.262C30.855,31.723,30.958,31.754,31.074,31.778Z" transform="translate(-10.996 -12.412)" fill="#18ad87"/>
  <path id="Path_275" data-name="Path 275" d="M8.248,38.937c.316-.322.608-.608.882-.9,1.266-1.351,2.525-2.714,3.791-4.065.608-.608,1.217-1.217,1.789-1.868a.785.785,0,0,1,.128-.116c.037-.037.122,0,.122.061V32.4l.31,15.34c0,.566.03.511-.475.408A21.157,21.157,0,0,1,10.147,46.6a17.275,17.275,0,0,1-7.868-7.3A17.244,17.244,0,0,1,.508,35.043,15.82,15.82,0,0,1,.07,32.579c0-.073,0-.14,0-.213a.175.175,0,0,1,.164-.195H.575l11.379-.219c.146,0,.31-.091.438.055a.907.907,0,0,1-.262.329c-1.57,1.619-3.146,3.237-4.71,4.868-.45.462-.438.329,0,.8C7.658,38.28,7.938,38.59,8.248,38.937Z" transform="translate(-0.029 -12.476)" fill="#18ad87"/>
  <path id="Path_276" data-name="Path 276" d="M38.361,12.964v-.189a3.085,3.085,0,0,0-1.071-2.738,3.748,3.748,0,0,0-2.556-.925,8.2,8.2,0,0,0-2.166.329,11.269,11.269,0,0,0-4.259,2.209q-.274.219-.548.42A.079.079,0,0,1,27.639,12v-.3L27.42.752V.539c0-.213.03-.237.256-.249h.213l13.186-.3a4.868,4.868,0,0,1,.943,0c.469.073.608.195.663.645a3.693,3.693,0,0,1,.055.73c-.03.937-.055,1.868-.176,2.793a14.926,14.926,0,0,1-3.742,8.361A1.369,1.369,0,0,1,38.361,12.964Z" transform="translate(-10.737 0.038)" fill="#18ad87"/>
  <path id="Path_277" data-name="Path 277" d="M7.534,17.779a.389.389,0,0,1-.286.061l-6.858.14c-.408,0-.4,0-.383-.4a22.733,22.733,0,0,1,.207-2.434,17.3,17.3,0,0,1,.742-3.316A15.942,15.942,0,0,1,4,6.516,18.668,18.668,0,0,1,10.65,1.533,13.344,13.344,0,0,1,13,.705,5.379,5.379,0,0,1,14.368.559c.14,0,.176.043.189.183a3.173,3.173,0,0,1,0,.341q.11,5.415.213,10.819v.347a.079.079,0,0,1-.122.067c-.152-.1-.3-.213-.45-.329A13.727,13.727,0,0,0,12.1,10.563a9.493,9.493,0,0,0-3.377-1.1,6.432,6.432,0,0,0-2.105,0,3.414,3.414,0,0,0-2.093,1.26,2.921,2.921,0,0,0-.608,1.716,3.882,3.882,0,0,0,.383,1.8,7.813,7.813,0,0,0,1.43,1.984A11.519,11.519,0,0,0,7.09,17.439Z" transform="translate(-0.003 -0.196)" fill="#18ad87"/>
  <path id="Path_278" data-name="Path 278" d="M16.151,24.176a7.132,7.132,0,0,1-5.89-3.042c-.164-.219-.31-.45-.45-.682a1.947,1.947,0,0,1-.262-.73,1.083,1.083,0,0,1,.608-1.174,2,2,0,0,1,1.089-.213A9.559,9.559,0,0,1,15.439,19.5a6.949,6.949,0,0,1,2.239,2.051,3.548,3.548,0,0,1,.262.444,1.479,1.479,0,0,1-1.174,2.148,4.953,4.953,0,0,1-.615.037Z" transform="translate(-3.734 -7.153)" fill="#18ad87"/>
  <path id="Path_279" data-name="Path 279" d="M30.337,24.25a2.5,2.5,0,0,1-1.3-.219,1.168,1.168,0,0,1-.682-1.345A2.227,2.227,0,0,1,28.6,22a5.142,5.142,0,0,1,.84-1.217,8.208,8.208,0,0,1,2.233-1.667,8.081,8.081,0,0,1,3.3-.894,2.318,2.318,0,0,1,.974.134,1.077,1.077,0,0,1,.736,1.053,2.045,2.045,0,0,1-.122.718,3.882,3.882,0,0,1-.828,1.4,8.105,8.105,0,0,1-4.564,2.641c-.14.03-.286.055-.426.073A3.055,3.055,0,0,1,30.337,24.25Z" transform="translate(-11.093 -7.11)" fill="#18ad87"/>
</svg>
