<svg width="63.16" height="63.16" viewBox="0 0 63.16 63.16">
  <defs>
    <style>
      .cls-1, .cls-2 {
        fill: #f5a623;
      }

      .cls-1 {
        opacity: 0.2;
      }

      .cls-3 {
        fill: #fff;
      }
    </style>
  </defs>
  <g id="location_pointer" data-name="location pointer" transform="translate(-90.724 -90.22)">
    <path id="outer_circle" class="cls-1" d="M208.27,238.87a31.58,31.58,0,1,0-31.58-31.58A31.58,31.58,0,0,0,208.27,238.87Z" transform="translate(-85.966 -85.49)"/>
    <path id="position_circle" class="cls-2" d="M199.851,214.736a16.313,16.313,0,1,0-16.291-16.291A16.313,16.313,0,0,0,199.851,214.736Z" transform="translate(-77.548 -77.646)"/>
    <path id="arrow" class="cls-3" d="M199.8,190.234l-10.66-3.049a.8.8,0,0,0-.979.979l3.027,10.66a.779.779,0,0,0,1.447,0l2.225-5.03,5.03-2.225a.8.8,0,0,0-.089-1.335Z" transform="translate(-71.938 -71.46)"/>
  </g>
</svg>
