<svg width="29" height="50" viewBox="0 0 29 50" fill="none" xmlns="http://www.w3.org/2000/svg">
<path d="M28.1146 23.7542L27.1179 20.2658C27.1179 20.0997 27.1179 20.0997 27.1179 19.9336L24.6263 10.6312C24.4601 9.96678 23.7957 9.46844 22.9651 9.46844H12.9983V6.4784C12.9983 5.98007 12.8322 5.64784 12.5 5.31561L7.68273 0.498339C7.01827 -0.166113 6.0216 -0.166113 5.35714 0.498339C4.69269 1.16279 4.69269 2.15947 5.35714 2.82392L9.67608 7.14286V9.46844H5.35714C4.52658 9.46844 3.86213 9.96678 3.69601 10.7973L1.37043 20.2658C1.37043 20.2658 1.37043 20.2658 1.37043 20.4319L0.373755 24.2525C-0.124584 26.412 -0.124584 28.5714 0.373755 30.3987C1.86877 35.3821 6.68605 38.8704 12.5 39.3688V46.6777H8.6794C7.68273 46.6777 7.01827 47.3422 7.01827 48.3389C7.01827 49.3356 7.68273 50 8.6794 50H19.6429C20.6395 50 21.304 49.3356 21.304 48.3389C21.304 47.3422 20.6395 46.6777 19.6429 46.6777H15.8223V39.3688C21.304 38.8704 25.789 36.0465 27.6163 31.5615C28.7791 29.0698 28.9452 26.412 28.1146 23.7542ZM12.9983 12.7907H21.6362L23.2973 18.9369H12.9983V12.7907ZM6.68605 12.7907H9.84219V18.9369H5.19103L6.68605 12.7907ZM24.6263 30.0664C23.1312 33.5548 18.9784 35.8804 14.1611 35.8804C10.1744 35.8804 5.02492 34.0532 3.5299 29.2359C3.19767 27.907 3.19767 26.412 3.5299 24.7508L4.19435 22.093H24.1279L24.7924 24.5847C25.4568 26.5781 25.2907 28.4053 24.6263 30.0664Z" fill="white"/>
</svg>
