<svg width="95" height="30" viewBox="0 0 95 30" fill="none" xmlns="http://www.w3.org/2000/svg">
<path d="M31.0177 15.6444C31.0116 14.7976 31.1561 13.9565 31.4445 13.1603C31.7129 12.4015 32.1358 11.7066 32.6866 11.1198C33.2374 10.5329 33.9041 10.0668 34.6444 9.75099C35.4776 9.39934 36.3753 9.22595 37.2796 9.24199C37.8771 9.23699 38.4734 9.29564 39.0584 9.41696C39.5972 9.53144 40.1236 9.69746 40.6305 9.91271L39.9147 12.6619C39.5686 12.5321 39.2144 12.425 38.8543 12.3411C38.4301 12.2435 37.9959 12.1963 37.5606 12.2006C36.5426 12.2006 35.7835 12.5161 35.2833 13.147C34.7575 13.8701 34.4955 14.7515 34.541 15.6444C34.541 16.7401 34.7752 17.5876 35.2435 18.1867C35.7119 18.7859 36.5328 19.0864 37.7064 19.0881C38.1559 19.0857 38.6044 19.0476 39.0478 18.9741C39.5031 18.9047 39.9483 18.7801 40.3734 18.603L40.8612 21.4237C40.3757 21.6186 39.8722 21.7651 39.358 21.8612C38.7033 21.9904 38.0371 22.0525 37.3697 22.0467C36.3912 22.0705 35.4175 21.9021 34.5039 21.551C33.7528 21.2522 33.078 20.7894 32.5288 20.1963C32.0056 19.6157 31.6188 18.9255 31.3968 18.1761C31.1437 17.3561 31.0158 16.5026 31.0177 15.6444Z" fill="#010000"/>
<path d="M53.0483 15.6126C53.0592 16.5047 52.9184 17.3922 52.6321 18.2371C52.3781 18.9913 51.969 19.684 51.4311 20.2705C50.9029 20.8341 50.2614 21.2795 49.5488 21.5775C48.767 21.8943 47.9295 22.0511 47.086 22.0388C46.2503 22.05 45.4209 21.8931 44.647 21.5775C43.9336 21.2809 43.2919 20.8352 42.7647 20.2705C42.2239 19.6819 41.8074 18.9903 41.5399 18.2371C41.2377 17.3956 41.0887 16.5067 41.0998 15.6126C41.0892 14.7219 41.2419 13.8368 41.5505 13.0012C41.8266 12.2538 42.2513 11.5702 42.7992 10.9917C43.3348 10.4341 43.9802 9.99358 44.6947 9.69798C45.4505 9.38372 46.2622 9.2259 47.0807 9.23404C47.9088 9.22393 48.7304 9.38175 49.4958 9.69798C50.2074 9.9918 50.8488 10.4327 51.3781 10.9917C51.9194 11.5692 52.3387 12.25 52.6108 12.9933C52.912 13.8332 53.0602 14.7203 53.0483 15.6126ZM49.5356 15.6126C49.5356 14.5521 49.3235 13.7161 48.8993 13.1046C48.6994 12.8114 48.4279 12.5742 48.1105 12.4155C47.7931 12.2569 47.4405 12.182 47.086 12.198C46.7294 12.184 46.375 12.2603 46.0557 12.4197C45.7364 12.5791 45.4625 12.8165 45.2594 13.1099C44.8281 13.7197 44.6125 14.5557 44.6125 15.6179C44.6125 16.6783 44.8273 17.5266 45.2594 18.1496C45.4573 18.4502 45.7294 18.6948 46.0493 18.8596C46.3693 19.0245 46.7263 19.1041 47.086 19.0908C47.4434 19.1052 47.7984 19.0265 48.1163 18.8625C48.4342 18.6984 48.704 18.4546 48.8993 18.1549C49.3235 17.5213 49.5356 16.6756 49.5356 15.6126Z" fill="#010000"/>
<path d="M64.7872 21.2991C64.0417 21.5019 63.2848 21.6603 62.5205 21.7737C61.5557 21.9233 60.5807 21.9969 59.6043 21.9937C58.7268 22.0189 57.8525 21.8777 57.0275 21.5775C56.3965 21.3365 55.8385 20.9365 55.4077 20.4163C54.9949 19.8899 54.7035 19.2789 54.554 18.6268C54.3746 17.8775 54.2855 17.1094 54.2889 16.339V9.54688H57.7353V15.9095C57.7353 17.0176 57.882 17.8183 58.1754 18.3114C58.4688 18.8045 59.0158 19.051 59.8164 19.051C60.0603 19.051 60.3228 19.051 60.6118 19.0166C60.9007 18.9821 61.142 18.9688 61.3514 18.937V9.54688H64.7978L64.7872 21.2991Z" fill="#010000"/>
<path d="M77.6132 15.6443C77.6228 16.5121 77.5058 17.3766 77.2659 18.2106C77.06 18.9323 76.715 19.6068 76.2505 20.1962C75.8016 20.7455 75.2318 21.1838 74.5857 21.4767C73.8659 21.796 73.085 21.9535 72.2978 21.938C71.8469 21.9412 71.3971 21.895 70.9563 21.8001C70.5441 21.7091 70.1418 21.5777 69.7554 21.4078V25.9836H66.309V9.97365C66.6165 9.88086 66.9717 9.79338 67.3694 9.70854C67.7671 9.62371 68.1912 9.54948 68.6287 9.4885C69.0661 9.42753 69.5141 9.37716 69.9701 9.34004C70.4261 9.30293 70.8582 9.28172 71.2744 9.28172C72.1915 9.2644 73.1039 9.41721 73.9653 9.7324C74.7119 10.0004 75.3889 10.4324 75.9464 10.9968C76.5039 11.5611 76.9276 12.2434 77.1864 12.9932C77.4823 13.8453 77.6267 14.7425 77.6132 15.6443ZM74.1005 15.7371C74.1005 14.6767 73.8619 13.8257 73.3847 13.1841C72.9075 12.5426 72.2006 12.2227 71.2638 12.2244C70.9537 12.2244 70.67 12.2244 70.4075 12.2589C70.1451 12.2934 69.9303 12.3093 69.7607 12.3411V18.5605C70.0225 18.7176 70.3068 18.8338 70.6037 18.9052C70.9494 18.9986 71.306 19.0459 71.6642 19.0457C73.2884 19.0386 74.1005 17.9331 74.1005 15.7292V15.7371Z" fill="#010000"/>
<path d="M82.8199 6.04475C82.8341 6.3229 82.7865 6.60073 82.6806 6.85832C82.5748 7.11591 82.4132 7.34688 82.2075 7.53466C81.8077 7.88497 81.2943 8.07809 80.7627 8.07809C80.2311 8.07809 79.7177 7.88497 79.3178 7.53466C79.1122 7.34688 78.9506 7.11591 78.8447 6.85832C78.7389 6.60073 78.6913 6.3229 78.7054 6.04475C78.6913 5.76661 78.7389 5.48878 78.8447 5.23119C78.9506 4.9736 79.1122 4.74263 79.3178 4.55484C79.7177 4.20454 80.2311 4.01141 80.7627 4.01141C81.2943 4.01141 81.8077 4.20454 82.2075 4.55484C82.4132 4.74263 82.5748 4.9736 82.6806 5.23119C82.7865 5.48878 82.8341 5.76661 82.8199 6.04475ZM82.4965 21.7153H79.0501V9.54684H82.4965V21.7153Z" fill="#010000"/>
<path d="M84.0209 9.97368C84.7664 9.77094 85.5233 9.61249 86.2876 9.49914C87.2524 9.35053 88.2275 9.27784 89.2038 9.28175C90.0802 9.25658 90.9537 9.39319 91.7806 9.68471C92.4146 9.91787 92.9766 10.3127 93.411 10.83C93.8214 11.345 94.1129 11.9443 94.2647 12.585C94.4452 13.3269 94.5343 14.0881 94.5298 14.8517V21.7153H91.0834V15.2679C91.0834 14.1571 90.9376 13.3724 90.6459 12.9084C90.3543 12.4445 89.8055 12.2165 89.0049 12.2165C88.7584 12.2165 88.4959 12.2165 88.2096 12.251C87.9233 12.2854 87.6794 12.3013 87.4699 12.3331V21.7153H84.0235L84.0209 9.97368Z" fill="#010000"/>
<path d="M11.5561 11.4769C11.9989 12.0283 12.4522 12.6434 12.0863 13.3883C11.7205 14.1333 11.0657 14.1359 10.2306 14.0856C9.20838 14.0054 8.22205 13.6728 7.36005 13.1175C6.49805 12.5623 5.78732 11.8018 5.29161 10.9043C4.68981 9.86768 5.22533 9.09356 6.32819 9.08826C7.10999 9.11173 7.88348 9.2557 8.62138 9.51508C9.77325 9.86198 10.7952 10.5451 11.5561 11.4769Z" fill="#0EAC85"/>
<path d="M0.0238647 14.5124C0.06571 13.4285 0.193362 12.3497 0.405621 11.286C1.11611 7.65399 3.26349 4.65827 6.35731 2.43135C7.78095 1.40001 9.37847 0.633131 11.0736 0.167326C11.5841 0.0413981 12.1095 -0.0139065 12.6351 0.00295821C12.6351 0.00295821 12.6351 7.13173 12.6351 10.04L12.0412 9.57338C10.4347 8.24784 8.61604 7.40479 6.51107 7.37828C4.00049 7.34382 2.6776 9.51506 3.85999 11.7261C4.20993 12.3835 4.94958 13.4175 6.4607 14.5177C6.466 14.5177 1.85577 14.5203 0.0238647 14.5124Z" fill="#0EAC85"/>
<path d="M12.6351 16.1348V29.9999C7.01477 28.7822 3.14065 25.6442 1.01271 20.5859C0.422512 19.1712 0.0799494 17.6656 0 16.1348H10.5434C10.2305 16.4688 5.81383 20.8272 5.81383 20.8272L6.83185 22.0069C8.83342 20.1034 10.6388 18.0488 12.6351 16.1348Z" fill="#0EAC85"/>
<path d="M21.5295 11.2621C20.7341 12.8528 18.3482 14.2791 16.3492 14.3056C16.2013 14.3068 16.0534 14.2989 15.9065 14.2817C14.7798 14.1306 14.3609 13.3856 14.8991 12.3862C15.1757 11.8835 15.5402 11.4345 15.9754 11.0606C17.1716 9.99753 18.6979 9.37954 20.2967 9.31092C21.7044 9.24729 22.118 10.093 21.5295 11.2621Z" fill="#0EAC85"/>
<path d="M27.3883 1.29937C27.3061 5.18852 26.1237 8.4573 23.478 11.0103C23.5946 10.4906 23.554 9.9479 23.3614 9.45129C23.1688 8.95468 22.8329 8.52656 22.3963 8.22136C21.5692 7.60896 20.6095 7.51882 19.6153 7.65403C18.0127 7.88175 16.4945 8.51403 15.2039 9.49123C15.0104 9.63439 14.7453 9.86768 14.4484 10.0692V0.00299072C14.4484 0.00299072 22.7198 0.00299072 26.137 0.00299072C27.3353 0.00299072 27.4148 0.0798722 27.3883 1.29937Z" fill="#0EAC85"/>
<path d="M14.4484 30H25.9806C25.9806 30 27.383 29.8436 27.3883 28.4438C27.3883 24.4672 25.1694 21.148 22.1948 18.5685C20.689 17.2615 18.6212 16.4741 16.662 16.1322L21.5453 20.7822L20.4849 21.9725C20.4849 21.9725 14.687 16.3204 14.4484 16.1189V30Z" fill="#0EAC85"/>
<path d="M14.4351 22.9243C14.4351 24.6978 14.4218 26.4714 14.4351 28.245C14.4351 26.4776 14.4351 24.704 14.4351 22.9243Z" fill="#0EAC85"/>
</svg>
