<svg xmlns="http://www.w3.org/2000/svg" width="107.664" height="27.335" viewBox="0 0 107.664 27.335"><g transform="translate(-26.336 -21)"><g transform="translate(26.336 21)"><path d="M30.37,31.774a10.087,10.087,0,0,1,1.815.465A9.7,9.7,0,0,1,36.035,34.7a11.171,11.171,0,0,1,2.756,4.552,11.679,11.679,0,0,1,.517,3.375,1.4,1.4,0,0,1-1.434,1.466l-8.607.172h-.791c-.126,0-.149-.028-.158-.158v-.163c-.042-1.922-.088-3.845-.126-5.772-.042-2.029-.074-4.064-.112-6.1v-.228c0-.074.042-.061.07-.037a.763.763,0,0,1,.154.121l2.053,1.908,3.035,2.835c.261.242.209.261.465-.037l.68-.8a.67.67,0,0,0-.228-.251c-1.28-1.178-2.565-2.327-3.845-3.519l-.251-.2C30.2,31.732,30.282,31.755,30.37,31.774Z" transform="translate(-15.011 -16.959)" fill="#fafafa"/><path d="M6.326,37.289c.242-.247.465-.465.675-.689.968-1.033,1.932-2.076,2.9-3.109.465-.465.931-.931,1.368-1.429a.6.6,0,0,1,.1-.088c.028-.028.093,0,.093.047v.265L11.7,44.02c0,.433.023.391-.363.312a16.184,16.184,0,0,1-3.556-1.178A13.215,13.215,0,0,1,1.76,37.568,13.191,13.191,0,0,1,.405,34.31,12.1,12.1,0,0,1,.07,32.425c0-.056,0-.107,0-.163A.134.134,0,0,1,.2,32.113H.456l8.7-.168c.112,0,.237-.07.335.042a.694.694,0,0,1-.2.251c-1.2,1.238-2.406,2.476-3.6,3.724-.344.354-.335.251,0,.61C5.874,36.786,6.089,37.024,6.326,37.289Z" transform="translate(-0.039 -17.047)" fill="#fafafa"/><path d="M35.789,9.908V9.764a2.36,2.36,0,0,0-.819-2.095,2.867,2.867,0,0,0-1.955-.708,6.27,6.27,0,0,0-1.657.251A8.621,8.621,0,0,0,28.1,8.9q-.209.168-.419.321a.06.06,0,0,1-.093-.051V8.945L27.42.566V.4c0-.163.023-.182.2-.191h.163L37.865-.02a3.724,3.724,0,0,1,.721,0c.358.056.465.149.507.493a2.825,2.825,0,0,1,.042.559c-.023.717-.042,1.429-.135,2.137a11.418,11.418,0,0,1-2.863,6.4A1.047,1.047,0,0,1,35.789,9.908Z" transform="translate(-14.658 0.038)" fill="#fafafa"/><path d="M5.764,13.732a.3.3,0,0,1-.219.047L.3,13.885c-.312,0-.3,0-.293-.307a17.39,17.39,0,0,1,.158-1.862A13.233,13.233,0,0,1,.732,9.179,12.2,12.2,0,0,1,3.06,5.116,14.281,14.281,0,0,1,8.147,1.3a10.208,10.208,0,0,1,1.8-.633A4.115,4.115,0,0,1,10.991.559c.107,0,.135.033.144.14a2.428,2.428,0,0,1,0,.261Q11.22,5.1,11.3,9.235V9.5a.061.061,0,0,1-.093.051c-.116-.079-.233-.163-.344-.251a10.5,10.5,0,0,0-1.6-1.089,7.261,7.261,0,0,0-2.583-.838,4.92,4.92,0,0,0-1.611,0,2.611,2.611,0,0,0-1.6.964A2.234,2.234,0,0,0,3,9.65a2.97,2.97,0,0,0,.293,1.373A5.977,5.977,0,0,0,4.386,12.54a8.811,8.811,0,0,0,1.038.931Z" transform="translate(-0.003 -0.281)" fill="#fafafa"/><path d="M14.6,22.8a5.455,5.455,0,0,1-4.506-2.327c-.126-.168-.237-.344-.344-.521a1.49,1.49,0,0,1-.2-.559.829.829,0,0,1,.465-.9,1.527,1.527,0,0,1,.833-.163,7.313,7.313,0,0,1,3.207.889,5.316,5.316,0,0,1,1.713,1.569,2.714,2.714,0,0,1,.2.34,1.131,1.131,0,0,1-.9,1.643,3.789,3.789,0,0,1-.47.028Z" transform="translate(-5.096 -9.779)" fill="#fafafa"/><path d="M29.865,22.832a1.908,1.908,0,0,1-.991-.168.894.894,0,0,1-.521-1.029,1.7,1.7,0,0,1,.186-.521,3.933,3.933,0,0,1,.642-.931,6.279,6.279,0,0,1,1.708-1.275,6.181,6.181,0,0,1,2.523-.684,1.773,1.773,0,0,1,.745.1.824.824,0,0,1,.563.805,1.564,1.564,0,0,1-.093.549,2.97,2.97,0,0,1-.633,1.071,6.2,6.2,0,0,1-3.491,2.02c-.107.023-.219.042-.326.056A2.336,2.336,0,0,1,29.865,22.832Z" transform="translate(-15.144 -9.721)" fill="#fafafa"/></g><text transform="translate(61 43)" fill="#fff" font-size="22" font-family="Ubuntu-Bold, Ubuntu" font-weight="700"><tspan x="0" y="0">Coupin</tspan></text></g></svg>